<svg width="138" height="30" viewBox="0 0 138 30" fill="none" xmlns="http://www.w3.org/2000/svg">
<path d="M136.385 10.7539C137.46 11.6238 136.322 12.9998 135.373 12.304C134.202 11.5606 131.545 11.2127 131.213 12.8575C130.786 15.4514 137.666 13.9647 137.555 18.1717C137.444 22.1892 131.624 22.2841 129.441 20.481C128.919 20.054 128.935 19.358 129.22 18.9309C129.631 18.5198 130.09 18.3774 130.628 18.8202C131.925 19.706 135.262 20.3703 135.499 18.1244C135.293 15.7835 128.714 17.1912 129.204 12.6994C129.568 9.63099 134.202 9.07736 136.385 10.7539ZM126.009 11.3707V17.0963C126.009 23.0116 116.471 23.0116 116.471 17.0963V11.3707C116.471 9.94737 118.543 9.88405 118.543 11.3707V17.0963C118.543 20.2121 123.937 20.4019 123.937 17.0963V11.3707C123.937 9.96308 126.009 9.85238 126.009 11.3707ZM60.7011 9.93154C63.4689 10.0738 66.3633 11.9876 66.3633 15.7361C66.3633 19.4845 63.4689 21.43 60.7011 21.43C57.7751 21.5565 54.7383 19.6111 54.7383 15.7361C54.7383 11.8452 57.7751 9.93154 60.7011 9.93154ZM74.6356 10.3268C78.653 10.3268 79.4754 15.7045 76.1224 17.0488L78.2259 19.6111C79.0484 20.829 77.4035 21.9993 76.4545 20.7973L74.0663 17.381H71.5831V20.2437C71.5831 21.6197 69.4795 21.6672 69.4795 20.2754V11.2917C69.4795 10.7381 69.9066 10.3268 70.4285 10.3268H74.6356ZM41.8633 10.1846C42.322 10.1846 42.5909 10.4535 42.8598 10.7539L46.3393 15.4514L49.9455 10.5799C50.4674 9.93155 51.7485 10.1846 51.7485 11.2759V20.1805C51.7485 20.8764 51.3057 21.2718 50.7995 21.2718C50.2301 21.2718 49.7873 20.8764 49.7873 20.1805V14.3285L47.1618 17.6499C46.5923 18.3458 45.8807 18.3458 45.3587 17.6499L43.0021 14.3285V20.1805C43.0021 20.8764 42.4327 21.2718 41.8633 21.2718C41.3572 21.2718 40.9143 20.8764 40.9143 20.1805V11.2759C40.9143 10.4535 41.6102 10.1846 41.8633 10.1846ZM86.1029 10.1846C88.159 10.1846 90.0095 11.5606 90.0095 14.2019C90.0095 16.7009 88.159 18.0927 86.1029 18.0927H83.4615V20.1805C83.4615 20.8764 83.0187 21.2718 82.4493 21.2718C81.9274 21.2718 81.3738 20.8764 81.3738 20.1805V11.2759C81.3738 10.7539 81.785 10.1846 82.4493 10.1846H86.1029ZM101.208 10.3268C101.762 10.3268 102.189 10.7381 102.189 11.3075V20.2912C102.189 20.8447 101.762 21.2718 101.208 21.2718C100.639 21.2718 100.132 20.8447 100.132 20.2912V16.8274H94.9764V20.2912C94.9764 20.8447 94.5651 21.2718 94.0115 21.2718C93.2998 21.2718 92.8886 20.8447 92.8886 20.2912V11.3075C92.8886 10.7381 93.2998 10.3268 94.0115 10.3268C94.5651 10.3268 94.9764 10.7381 94.9764 11.3075V14.7555H100.132V11.3075C100.132 10.7381 100.639 10.3268 101.208 10.3268ZM112.217 10.3268C113.672 10.3268 113.64 12.383 112.217 12.383H107.662V14.7555H111.647C113.055 14.7555 113.055 16.8274 111.647 16.8274H107.662V19.1998H112.486C113.925 19.1998 114.035 21.2718 112.486 21.2718H106.539C105.985 21.2718 105.558 20.8447 105.558 20.2912V11.3075C105.558 10.7381 105.985 10.3268 106.539 10.3268H112.217ZM60.5271 11.9876C58.7557 11.9876 56.8261 13.2372 56.8261 15.7361C56.8261 18.2192 58.7557 19.4845 60.5271 19.4845C62.346 19.4845 64.2914 18.2192 64.2914 15.7361C64.2914 13.2372 62.346 11.9876 60.5271 11.9876ZM86.1029 12.1774H83.4615V16.1157H86.1029C87.1625 16.1157 88.0009 15.1825 88.0009 14.2019C88.0009 13.0948 87.1625 12.1774 86.1029 12.1774ZM74.6357 12.2406H71.5831V15.5621H74.6357C76.6917 15.5621 76.8183 12.2406 74.6357 12.2406Z" fill="#3DB5E6"/>
<path d="M28.3679 18.6302C26.8259 24.8252 21.1841 29.2327 14.5392 29.2327C7.86432 29.2327 2.27103 24.5643 0.792236 18.3437C2.57041 18.3437 4.23275 18.3518 5.00449 18.3518C5.36855 18.3518 5.43925 18.3582 5.46032 18.3566C6.04101 18.3281 6.76913 18.1364 7.25353 16.9585L9.09941 12.1299L13.1988 22C13.5674 22.7868 14.1827 22.7311 14.5498 22.7311H14.5844C15.3005 22.7311 15.6119 22.4801 15.8842 21.9611L20.5146 12.2039L22.0942 16.6013L22.1905 16.8142C22.5245 17.5468 22.7647 18.2705 23.5912 18.365C23.7616 18.3845 25.7401 18.35 28.4074 18.35C28.4074 18.35 28.4074 18.3671 28.3679 18.6302Z" fill="#3DB5E6"/>
<path d="M28.8207 14.9814C28.8207 15.0551 28.8207 15.2405 28.8191 15.2405H28.8161H24.5588L22.075 8.30221C21.8539 7.78621 21.5214 7.01265 20.5526 7.01265C19.9599 7.01265 19.4243 7.50217 19.1204 8.31002L14.6178 18.7394L10.2837 8.37328C9.85947 7.45261 9.56612 7.01961 8.71765 7.01961C8.14147 7.01961 7.71874 7.23185 7.2584 8.32252L4.68592 15.3435L0.411979 15.339C0.408968 15.2322 0.407471 15.1254 0.407471 15.0186C0.407471 7.21391 6.73488 0.90625 14.5396 0.90625C22.3443 0.90625 28.8207 7.17668 28.8207 14.9814Z" fill="#D8292F"/>
</svg>
