<svg width="138" height="29" viewBox="0 0 138 29" fill="none" xmlns="http://www.w3.org/2000/svg">
<path d="M25.2642 15.07L25.2824 15.0714L27.1781 15.2696C27.3112 15.2839 27.4334 15.3489 27.5197 15.4504L27.5338 15.4677L27.5158 15.4766C27.6044 15.5885 27.6435 15.7316 27.6238 15.8729C27.2097 19.1656 25.649 22.2073 23.2157 24.464C20.691 26.8057 17.3747 28.1067 13.9311 28.1067C12.2586 28.1094 10.6003 27.8015 9.04064 27.1988L8.95567 27.1657C8.82801 27.1185 8.72544 27.0214 8.67114 26.8973L8.66297 26.8775C8.6098 26.754 8.60684 26.6149 8.65411 26.4897L9.40236 24.6641C9.50375 24.406 9.79109 24.2761 10.0506 24.3675L10.0678 24.374C13.8925 25.8508 18.2243 25.019 21.23 22.2307C23.1432 20.4727 24.3769 18.0978 24.7151 15.5216C24.7509 15.2556 24.9817 15.0621 25.2461 15.0692L25.2642 15.07ZM70.0348 7.32229C71.6512 7.32229 72.9152 7.81545 73.7225 8.76257L73.7496 8.79467V7.99318C73.7604 7.76947 73.9336 7.58867 74.1547 7.56683L74.1728 7.56541H76.3296C76.5515 7.58075 76.728 7.75541 76.7472 7.97526L76.7484 7.99318V19.9659C76.8181 21.6541 76.2992 23.3142 75.2805 24.6622C74.1187 26.076 72.3537 26.7919 70.0348 26.7919C66.8109 26.7919 64.2668 24.7522 63.8481 21.8389C63.8273 21.6286 63.9554 21.4331 64.1545 21.3671L64.1723 21.3616L66.2796 20.8664C66.2905 20.8639 66.3016 20.8618 66.3127 20.8602C66.544 20.8263 66.7589 20.9863 66.7928 21.2176C66.9853 22.8518 68.3898 24.0709 70.0348 24.0318C72.5266 24.0318 73.699 22.7652 73.7222 20.1185L73.7225 20.0379V18.9888C72.7884 20.0364 71.4376 20.6153 70.0348 20.5692C66.4506 20.5692 63.8526 17.7866 63.8526 13.9592C63.8198 12.2372 64.4261 10.5641 65.5546 9.26291C66.7008 8.00369 68.3322 7.29704 70.0348 7.32229ZM5.12438 21.8839L5.1511 21.8837L5.17792 21.8839C6.03825 21.8938 6.73095 22.5895 6.7403 23.4466L6.74037 23.4735C6.74037 23.4824 6.74027 23.4913 6.74011 23.5002C6.72513 24.3779 6.00157 25.0774 5.12386 25.0625C4.24615 25.0475 3.54676 24.3239 3.56159 23.4462C3.57627 22.5864 4.27089 21.8977 5.12438 21.8839ZM107.369 7.1557L107.48 7.15652C111.333 7.20973 113.72 9.89167 113.72 14.1843C113.72 14.4115 113.708 14.6385 113.684 14.8643C113.664 15.072 113.494 15.2321 113.288 15.242L113.27 15.2425H104.111C104.167 17.166 105.758 18.688 107.682 18.66C109.173 18.7538 110.533 17.8053 110.96 16.3727C111.038 16.1671 111.26 16.0564 111.469 16.1154L111.486 16.1206L113.314 16.7644C113.416 16.7969 113.498 16.8685 113.545 16.9627L113.553 16.9806C113.603 17.0797 113.612 17.195 113.576 17.3002C112.727 19.8143 110.334 21.4777 107.682 21.3977C105.943 21.415 104.269 20.7356 103.035 19.5111C101.688 18.0935 100.969 16.1928 101.04 14.2384C101.04 9.84763 104.196 7.20884 107.278 7.1565L107.369 7.1557ZM55.5451 7.15571H55.5496C59.4715 7.15571 61.9075 9.84831 61.9075 14.1843C61.9071 14.4115 61.8951 14.6385 61.8714 14.8643C61.8532 15.0731 61.6822 15.2344 61.4745 15.2422L61.4571 15.2425H52.2987C52.3551 17.1713 53.9535 18.6955 55.8828 18.6601C57.3753 18.7555 58.7353 17.8064 59.1608 16.3727C59.237 16.1654 59.4605 16.054 59.6706 16.1152L59.6876 16.1206L61.5157 16.7644C61.6226 16.7989 61.7094 16.8776 61.7543 16.9806C61.7971 17.0828 61.7971 17.198 61.7543 17.3002C60.9059 19.8127 58.5155 21.4757 55.8648 21.3977C54.1229 21.4174 52.4458 20.7379 51.209 19.5111C49.8635 18.0924 49.1447 16.1925 49.2143 14.2384C49.2143 9.80328 52.4337 7.15571 55.5451 7.15571ZM41.6768 7.15115C43.4373 7.15115 44.8602 7.57893 45.9138 8.42088C46.6263 8.98867 47.1543 9.75486 47.4312 10.6228L47.4321 10.6262C47.4682 10.7759 47.3803 10.9266 47.2344 10.9699L47.2196 10.9739L45.0358 11.6944C44.9389 11.7328 44.831 11.7328 44.7341 11.6944C44.6514 11.6558 44.5892 11.5836 44.563 11.4963L44.5514 11.4533C44.3524 10.7423 43.7022 9.60063 41.6768 9.60063C40.2359 9.60063 39.3714 10.4291 39.3714 11.2306L39.3717 11.2624C39.3826 11.7835 39.6659 12.4377 40.9086 12.6864L40.9474 12.694L43.3518 13.1442C46.0085 13.6792 47.5399 15.1232 47.5703 17.1355L47.5708 17.1967L47.5618 17.1608L47.5612 17.2218C47.5226 19.239 45.5714 21.3616 41.9784 21.3616C37.7684 21.3616 36.116 18.9797 35.8098 17.5749C35.7898 17.428 35.8794 17.2891 36.0197 17.246L36.0349 17.2417L38.2863 16.5393C38.3265 16.5327 38.3676 16.5327 38.4078 16.5393C38.4651 16.5383 38.5217 16.5504 38.5733 16.5747L38.5924 16.5843C38.6751 16.6239 38.7361 16.6982 38.759 16.7869C39.0427 18.1378 40.2629 18.9438 42.019 18.9438C43.6535 18.9438 44.3964 18.0882 44.3964 17.3138C44.3964 16.5478 43.7489 15.98 42.6327 15.7455L42.5953 15.7378L40.0693 15.247C37.7144 14.8013 36.2466 13.3378 36.2466 11.4332C36.2466 9.11432 38.7365 7.15115 41.6768 7.15115ZM132.487 3.40044H134.455C134.687 3.41437 134.869 3.60267 134.878 3.83331L134.878 3.85068V7.54742H137.246C137.477 7.56361 137.656 7.75107 137.665 7.97998L137.666 7.99766V9.96084L137.666 9.97793C137.659 10.198 137.484 10.3768 137.264 10.3881L137.246 10.3886H134.878V16.958C134.878 18.0477 135.31 18.498 136.422 18.498C136.647 18.4941 136.873 18.477 137.096 18.4468L137.179 18.4349C137.302 18.4141 137.427 18.4488 137.521 18.5295C137.606 18.6084 137.657 18.7168 137.665 18.832L137.666 18.8537V20.7043C137.667 20.8929 137.544 21.0599 137.364 21.1141C136.845 21.2592 136.31 21.3321 135.771 21.3308L135.698 21.3301C133.348 21.3301 131.882 19.8341 131.853 17.4144L131.853 17.3408V10.4156H129.804C129.58 10.4025 129.401 10.2272 129.382 10.0059L129.38 9.98786V8.01566C129.38 7.78299 129.557 7.58935 129.786 7.56678L129.804 7.56541L130.355 7.56534L130.413 7.5643C131.056 7.54583 132.044 7.28524 132.064 5.85003L132.064 5.80481V3.85068C132.063 3.61801 132.241 3.42438 132.47 3.40181L132.487 3.40044ZM94.2437 7.15371L94.2952 7.15571H94.2906C96.6088 7.15571 98.9489 8.77083 98.9955 12.2983L98.9962 12.4058V20.7448C98.9857 20.9685 98.8119 21.1493 98.591 21.1712L98.573 21.1726H96.416C96.1926 21.1594 96.014 20.9842 95.994 20.7629L95.9927 20.7448V12.676L95.9923 12.6138C95.9792 11.5857 95.6298 9.9338 93.5121 9.9338C91.9471 9.9338 90.8324 11.1518 90.8102 12.9238L90.8099 12.9776V20.7448C90.7994 20.9685 90.6263 21.1493 90.4047 21.1712L90.3867 21.1726H88.2034C87.9793 21.1594 87.8006 20.9842 87.7814 20.7629L87.7802 20.7448V12.676L87.7798 12.6138C87.7667 11.5857 87.4172 9.9338 85.2988 9.9338C83.6718 9.9338 82.5701 11.143 82.5482 12.9497L82.5479 13.0047V20.7448C82.5366 20.9685 82.3635 21.1493 82.1427 21.1712L82.1247 21.1726H79.9677C79.7458 21.1573 79.5694 20.9825 79.5503 20.7627L79.5491 20.7448V7.96615C79.5596 7.74402 79.7305 7.56384 79.9498 7.53997L79.9677 7.53838H82.0436C82.2669 7.55154 82.4463 7.7268 82.4656 7.94811L82.4668 7.96615V8.73613C83.4005 7.71238 84.7281 7.13717 86.1136 7.15571C87.7184 7.10868 89.2159 7.95712 89.9998 9.35744C90.9333 7.93106 92.5428 7.09659 94.2437 7.15371ZM126.539 8.74509C127.366 9.83367 127.792 11.1726 127.748 12.5372L127.746 12.5949V20.7448C127.735 20.9669 127.564 21.1471 127.345 21.171L127.327 21.1726H125.144C124.92 21.1594 124.741 20.9842 124.721 20.7629L124.72 20.7448V13.0317C124.72 11.0145 123.77 9.98786 121.969 9.98786C121.173 9.96214 120.413 10.3165 119.92 10.9424C119.443 11.6294 119.197 12.4493 119.216 13.2842L119.218 13.3334V20.7448C119.207 20.9685 119.034 21.1493 118.813 21.1712L118.795 21.1726H116.615C116.392 21.1594 116.213 20.9842 116.193 20.7629L116.192 20.7448V7.95712C116.203 7.73341 116.376 7.55267 116.597 7.53077L116.615 7.52934H118.745C118.967 7.54468 119.144 7.71942 119.163 7.9392L119.164 7.95712V8.85769C120.077 7.75084 121.448 7.12366 122.883 7.15571C124.281 7.09593 125.629 7.68203 126.539 8.74509ZM1.0399 15.6163H16.5427C16.8276 15.6187 17.0578 15.8468 17.0649 16.1295L17.0651 16.1476V18.0883C17.0675 18.3731 16.8432 18.6071 16.5608 18.6191L16.5427 18.6195H1.0399C0.754962 18.6171 0.524892 18.3889 0.517578 18.1063V18.0882V16.1475V16.1294C0.524739 15.8529 0.745137 15.6286 1.0214 15.6167L1.0399 15.6163ZM70.4085 10.0149C68.2833 10.0149 66.9325 11.5278 66.9325 13.9592C66.9325 16.3907 68.2652 17.8991 70.4085 17.8991C72.4527 17.8991 73.8306 16.3142 73.8306 13.9592C73.8306 11.5998 72.4527 10.0149 70.4085 10.0149ZM52.3945 12.6457L52.3887 12.694H58.796C58.6401 10.9823 57.4337 9.91483 55.627 9.89365L55.5721 9.89333C53.9801 9.86744 52.6245 11.0318 52.4009 12.5981L52.3945 12.6457ZM104.225 12.6457L104.219 12.694H110.627C110.471 10.9823 109.264 9.91483 107.458 9.89365L107.403 9.89333C105.811 9.86744 104.455 11.0318 104.231 12.5981L104.225 12.6457ZM18.4834 0.806844C18.6176 0.855267 18.7264 0.955974 18.785 1.08603C18.8389 1.21732 18.8389 1.36452 18.785 1.49573L18.1097 3.29687C18.0161 3.56393 17.724 3.70487 17.4568 3.61204C13.9184 2.3773 9.99224 3.07885 7.10054 5.46261C5.2984 6.97105 4.01879 9.01029 3.44436 11.2891C3.38489 11.5192 3.17768 11.6802 2.94005 11.6809H2.82297L0.967844 11.2351C0.829527 11.2026 0.710748 11.1146 0.639156 10.9919H0.630121C0.555054 10.8693 0.533893 10.7211 0.571658 10.5822C1.30835 7.66511 2.95673 5.05924 5.27693 3.14373C8.96633 0.106375 13.9757 -0.780063 18.4834 0.806844ZM11.6168 8.58754H27.1195C27.3974 8.58981 27.6245 8.80715 27.6411 9.08237L27.6419 9.10081V11.0415C27.6442 11.3264 27.4202 11.5604 27.1376 11.5724L27.1195 11.5728H11.6168C11.3337 11.568 11.1062 11.3407 11.0991 11.0599L11.0989 11.0415V9.1188C11.0964 8.83573 11.3178 8.6026 11.5984 8.58817L11.6168 8.58754ZM22.3787 2.66642L22.4054 2.66621L22.4323 2.66645C23.2926 2.67631 23.9853 3.37197 23.9946 4.22907L23.9947 4.2559C23.9947 4.26486 23.9946 4.27382 23.9944 4.2827C23.9795 5.16041 23.2559 5.8598 22.3782 5.8449C21.5005 5.82999 20.8011 5.10635 20.816 4.22872C20.8306 3.36885 21.5253 2.68016 22.3787 2.66642Z" fill="#4FB58B"/>
</svg>
