<svg width="22" height="30" viewBox="0 0 22 30" fill="none" xmlns="http://www.w3.org/2000/svg">
<path d="M21.5 10.6244C21.5 9.5744 20.8881 8.61134 19.925 8.2619C20.537 7.4744 20.6256 6.33746 20.1006 5.3744C19.5756 4.41134 18.5256 3.97496 17.5625 4.0619C17.6495 3.09884 17.2131 2.04884 16.25 1.52384C15.287 0.998842 14.237 1.08578 13.3625 1.69939C13.0131 0.737968 12.05 0.12439 11 0.12439C9.95001 0.12439 8.98695 0.73633 8.63751 1.69939C7.76307 1.08745 6.71307 1.00047 5.75001 1.52548C4.78695 2.0505 4.35057 3.10048 4.43751 4.06354C3.47445 3.97659 2.42445 4.413 1.89945 5.37604C1.37445 6.3391 1.46139 7.3891 2.075 8.26354C1.20056 8.7016 0.5 9.57604 0.5 10.626C0.5 11.676 1.11194 12.6391 2.075 12.9885C1.46306 13.776 1.37444 14.913 1.89945 15.876C2.42445 16.8391 3.47445 17.2755 4.43751 17.1885C4.35056 18.1516 4.78696 19.2016 5.75001 19.7266C5.75001 19.7266 5.83697 19.7266 5.83697 19.8136L3.21197 28.2136L6.53753 26.463L8.28808 29.7886L11 21.1261H11.087H11.1739L13.8859 29.8755L15.6364 26.5499L18.962 28.3005L16.2501 19.8136C16.2501 19.8136 16.337 19.8136 16.337 19.7266C17.3001 19.2016 17.7364 18.1516 17.6495 17.1885C18.6126 17.2755 19.6626 16.8391 20.1876 15.876C20.7126 14.913 20.6256 13.863 20.012 12.9885C20.8881 12.6374 21.5001 11.6744 21.5001 10.6244L21.5 10.6244ZM11 16.7505C7.58752 16.7505 4.87558 14.0386 4.87558 10.6261C4.87558 7.21358 7.58752 4.50164 11 4.50164C14.4125 4.50164 17.1245 7.21358 17.1245 10.6261C17.1245 14.0369 14.4125 16.7505 11 16.7505Z" fill="black"/>
</svg>
