<svg width="44" height="44" viewBox="0 0 44 44" fill="none" xmlns="http://www.w3.org/2000/svg">
<path d="M40.3751 32.6243L35.8751 25.7501V25.6259L43.2509 22.0001L35.8751 18.3743V18.25L40.3751 11.3758L32.1251 11.8751L32.6243 3.62507L25.7501 8.12507H25.6259L22.0001 0.749268L18.3743 8.12507H18.25L11.3758 3.62507L11.8751 11.8751L3.62507 11.3758L8.12507 18.25V18.3743L0.749268 22.0001L8.12507 25.6259V25.7501L3.62507 32.6243L11.8751 32.1251L11.3758 40.3751L18.25 35.8751H18.3743L22.0001 43.2509L25.6259 35.8751H25.7501L32.6243 40.3751L32.1251 32.1251L40.3751 32.6243ZM22.0001 32.0008C16.4993 32.0008 11.9993 27.5008 11.9993 22C11.9993 16.4992 16.4993 11.9992 22.0001 11.9992C27.5009 11.9992 32.0009 16.4992 32.0009 22C32.0009 27.5008 27.5009 32.0008 22.0001 32.0008Z" fill="#F57059"/>
<path d="M22 14.5C17.875 14.5 14.5 17.875 14.5 22C14.5 26.125 17.875 29.5 22 29.5C26.125 29.5 29.5 26.125 29.5 22C29.5 17.875 26.125 14.5 22 14.5Z" fill="#F57059"/>
</svg>
