<svg width="20" height="20" viewBox="0 0 20 20" fill="none" xmlns="http://www.w3.org/2000/svg">
<g clip-path="url(#clip0_0_304)">
<path d="M19.9951 20V19.9991H20.0001V12.6641C20.0001 9.07581 19.2276 6.31165 15.0326 6.31165C13.0159 6.31165 11.6626 7.41831 11.1101 8.46748H11.0517V6.64665H7.07422V19.9991H11.2159V13.3875C11.2159 11.6466 11.5459 9.96331 13.7017 9.96331C15.8259 9.96331 15.8576 11.95 15.8576 13.4991V20H19.9951Z" fill="#3734A9"/>
<path d="M0.3302 6.64771H4.47687V20.0002H0.3302V6.64771Z" fill="#3734A9"/>
<path d="M2.40167 0C1.07583 0 0 1.07583 0 2.40167C0 3.7275 1.07583 4.82583 2.40167 4.82583C3.7275 4.82583 4.80333 3.7275 4.80333 2.40167C4.8025 1.07583 3.72667 0 2.40167 0V0Z" fill="#3734A9"/>
</g>
<defs>
<clipPath id="clip0_0_304">
<rect width="20" height="20" fill="white"/>
</clipPath>
</defs>
</svg>
