<svg width="30" height="30" viewBox="0 0 30 30" fill="none" xmlns="http://www.w3.org/2000/svg">
<path d="M7.56741 6C7.90208 5.95655 8.24145 6.03078 8.52741 6.21L18.2774 11.7525L15.8099 14.25L7.56741 6ZM6.81741 6.75C6.77039 6.91328 6.74765 7.08259 6.74991 7.2525V22.7475C6.74765 22.9174 6.77039 23.0867 6.81741 23.25L15.0674 15L6.81741 6.75ZM15.8174 15.75L7.56741 24C7.90224 24.0474 8.24295 23.9729 8.52741 23.79L18.2774 18.2475L15.8174 15.75ZM22.2074 13.995L19.2524 12.315L16.5524 15L19.2449 17.6925L22.1999 16.0125C23.1749 15.4575 23.1749 14.5425 22.1999 13.9875L22.2074 13.995Z" fill="white"/>
</svg>
