<svg width="17" height="21" viewBox="0 0 17 21" fill="none" xmlns="http://www.w3.org/2000/svg">
<g clip-path="url(#clip0_0_401)">
<path d="M14.127 11.0997C14.127 9.36914 15.0588 7.85948 16.4412 7.05992C15.7194 6.16081 14.6336 5.35503 13.4366 5.11859C11.8044 4.79581 10.8734 5.33325 10.2711 5.5487C9.66881 5.76414 8.86881 5.95781 8.86881 5.95781C8.86881 5.95781 8.06957 5.76414 7.46651 5.5487C6.86498 5.33325 5.93394 4.79503 4.30176 5.11781C2.66957 5.44059 1.24429 6.8227 0.664976 8.0547C-0.452265 10.4324 0.00750499 13.4237 0.796777 15.575C1.58528 17.7271 3.67034 20.734 5.2872 20.9759C6.43739 21.1478 7.14927 20.3413 8.86881 20.1367C10.5883 20.3413 11.3002 21.1478 12.4504 20.9759C14.0673 20.734 16.1523 17.7271 16.9408 15.575C16.96 15.5221 16.9799 15.4677 16.9991 15.4133C15.3156 14.7273 14.127 13.0543 14.127 11.0997ZM8.46038 4.72503C8.46038 4.72503 10.0596 4.94048 11.5117 3.2667C12.9638 1.59292 12.5508 0.00936593 12.5508 0.00936593C12.5508 0.00936593 10.9516 -0.206079 9.49946 1.4677C8.04735 3.14148 8.46038 4.72503 8.46038 4.72503Z" fill="white"/>
</g>
<defs>
<clipPath id="clip0_0_401">
<rect width="17" height="21" fill="white"/>
</clipPath>
</defs>
</svg>
