<svg width="40" height="40" viewBox="0 0 40 40" fill="none" xmlns="http://www.w3.org/2000/svg">
<path d="M1.24995 18.7507C1.12573 18.7507 0.87495 18.7507 0.750732 18.875C0.249168 18.9992 0.000732422 19.5008 0.000732422 20V28.7492C0.000732422 34.3742 5.62573 39.9992 11.2507 39.9992H15.0007V32L2.12413 19.1258C1.8757 18.875 1.62491 18.7508 1.24993 18.7508L1.24995 18.7507Z" fill="#F57059"/>
<path d="M39.2492 18.875C39.125 18.7507 38.8742 18.7507 38.75 18.7507C38.375 18.7507 38.1242 18.875 37.8758 19.1257L22.5008 34.5007V22.2499C38.6258 19.8757 29.8766 0.750732 29.8766 0.750732C29.75 0.375732 29.2508 0.000732422 28.7493 0.000732422C28.25 0.000732422 27.7485 0.375732 27.6243 0.874932L24.3735 6.62413L21.1227 0.874932C21.0008 0.375714 20.4992 0.000732422 20 0.000732422C19.5008 0.000732422 18.9992 0.375732 18.875 0.874932L15.6242 6.62413L12.3734 0.874932C12.2492 0.375714 11.7499 0.000732422 11.2507 0.000732422C10.7515 0.000732422 10.2499 0.375732 10.1257 0.874932C10.1257 0.874932 1.37654 19.9999 17.5015 22.3741L17.4992 39.9991H28.7492C34.3742 39.9991 39.9992 34.3741 39.9992 28.7491V19.9999C39.9992 19.5007 39.7508 18.9991 39.2492 18.8749L39.2492 18.875Z" fill="#F57059"/>
</svg>
