<svg width="28" height="30" viewBox="0 0 28 30" fill="none" xmlns="http://www.w3.org/2000/svg">
<path d="M13.9998 7.125C10.1493 7.125 6.99927 10.275 6.99927 14.1256C6.99927 15.7006 7.52427 17.1 8.39871 18.2386C8.39871 18.2386 8.66121 18.5881 8.74816 18.6767C9.53566 19.6397 11.4601 22.3517 11.4601 24.6272H16.7101C16.7101 22.3517 18.6345 19.6397 19.422 18.6767C19.509 18.5897 19.7715 18.2386 19.7715 18.2386C20.6459 17.1017 21.1709 15.6136 21.1709 14.1256C21.0003 10.275 17.8503 7.125 13.9999 7.125H13.9998Z" fill="black"/>
<path d="M11.375 26.3744H16.625V29.8738H11.375V26.3744Z" fill="black"/>
<path d="M0.000488281 13.2494H5.25049V15H0.000488281V13.2494Z" fill="black"/>
<path d="M22.7493 13.2494H27.9993V15H22.7493V13.2494Z" fill="black"/>
<path d="M23.2908 3.60571L24.5279 4.84274L20.8152 8.55546L19.5781 7.31843L23.2908 3.60571Z" fill="black"/>
<path d="M13.1255 0.12439H14.8761V5.37439H13.1255V0.12439Z" fill="black"/>
<path d="M4.71872 3.59778L8.43143 7.31049L7.19441 8.54752L3.48169 4.8348L4.71872 3.59778Z" fill="black"/>
</svg>
