<svg width="138" height="29" viewBox="0 0 138 29" fill="none" xmlns="http://www.w3.org/2000/svg">
<path d="M24.7466 15.0378L24.7648 15.0392L26.6605 15.2373C26.7936 15.2517 26.9158 15.3166 27.0021 15.4182L27.0162 15.4354L26.9982 15.4444C27.0868 15.5562 27.1259 15.6993 27.1063 15.8407C26.6921 19.1334 25.1314 22.1751 22.6982 24.4318C20.1734 26.7735 16.8571 28.0745 13.4135 28.0745C11.741 28.0772 10.0827 27.7693 8.52306 27.1666L8.43809 27.1334C8.31043 27.0863 8.20786 26.9892 8.15356 26.8651L8.14539 26.8453C8.09222 26.7217 8.08926 26.5827 8.13653 26.4575L8.88478 24.6319C8.98617 24.3738 9.27351 24.2438 9.53301 24.3353L9.55027 24.3417C13.3749 25.8185 17.7067 24.9868 20.7124 22.1985C22.6256 20.4405 23.8593 18.0656 24.1975 15.4894C24.2333 15.2234 24.4641 15.0299 24.7286 15.037L24.7466 15.0378ZM69.5172 7.29007C71.1336 7.29007 72.3977 7.78323 73.2049 8.73034L73.232 8.76244V7.96096C73.2428 7.73725 73.416 7.55644 73.6372 7.5346L73.6552 7.53318H75.812C76.0339 7.54852 76.2104 7.72319 76.2296 7.94303L76.2308 7.96096V19.9337C76.3005 21.6219 75.7816 23.2819 74.7629 24.63C73.6011 26.0438 71.8361 26.7597 69.5172 26.7597C66.2933 26.7597 63.7492 24.72 63.3305 21.8067C63.3097 21.5964 63.4378 21.4008 63.6369 21.3349L63.6547 21.3294L65.762 20.8342C65.7729 20.8317 65.784 20.8296 65.7951 20.828C66.0264 20.7941 66.2413 20.9541 66.2752 21.1854C66.4677 22.8196 67.8723 24.0387 69.5172 23.9995C72.0091 23.9995 73.1814 22.733 73.2046 20.0863L73.2049 20.0056V18.9566C72.2709 20.0042 70.92 20.5831 69.5172 20.537C65.933 20.537 63.335 17.7543 63.335 13.927C63.3022 12.205 63.9086 10.5318 65.037 9.23068C66.1832 7.97146 67.8147 7.26481 69.5172 7.29007ZM4.6068 21.8517L4.63352 21.8515L4.66034 21.8517C5.52067 21.8616 6.21337 22.5572 6.22273 23.4144L6.2228 23.4413C6.2228 23.4501 6.22269 23.4591 6.22254 23.468C6.20755 24.3457 5.48399 25.0452 4.60628 25.0302C3.72857 25.0153 3.02918 24.2917 3.04401 23.414C3.05869 22.5542 3.75332 21.8654 4.6068 21.8517ZM106.852 7.12347L106.962 7.12429C110.815 7.1775 113.202 9.85944 113.202 14.1521C113.202 14.3793 113.19 14.6062 113.166 14.832C113.147 15.0397 112.977 15.1999 112.77 15.2098L112.752 15.2102H103.594C103.65 17.1338 105.24 18.6557 107.165 18.6278C108.656 18.7215 110.015 17.7731 110.442 16.3405C110.52 16.1348 110.742 16.0242 110.952 16.0832L110.969 16.0883L112.797 16.7322C112.898 16.7647 112.981 16.8363 113.027 16.9304L113.036 16.9484C113.086 17.0475 113.094 17.1627 113.059 17.268C112.209 19.7821 109.817 21.4455 107.165 21.3655C105.425 21.3828 103.752 20.7034 102.518 19.4789C101.17 18.0612 100.451 16.1605 100.523 14.2062C100.523 9.81541 103.678 7.17661 106.76 7.12428L106.852 7.12347ZM55.0275 7.12348H55.032C58.9539 7.12348 61.3899 9.81608 61.3899 14.1521C61.3896 14.3793 61.3775 14.6062 61.3538 14.832C61.3356 15.0409 61.1646 15.2022 60.9569 15.2099L60.9396 15.2102H51.7811C51.8375 17.1391 53.4359 18.6632 55.3652 18.6279C56.8577 18.7232 58.2178 17.7742 58.6432 16.3405C58.7195 16.1332 58.9429 16.0218 59.153 16.083L59.17 16.0883L60.9981 16.7322C61.105 16.7667 61.1919 16.8454 61.2367 16.9484C61.2795 17.0506 61.2795 17.1658 61.2367 17.268C60.3883 19.7804 57.9979 21.4435 55.3472 21.3655C53.6053 21.3852 51.9282 20.7056 50.6914 19.4789C49.3459 18.0602 48.6271 16.1602 48.6967 14.2062C48.6967 9.77106 51.9162 7.12348 55.0275 7.12348ZM41.1592 7.11893C42.9197 7.11893 44.3426 7.5467 45.3962 8.38865C46.1087 8.95644 46.6367 9.72263 46.9136 10.5905L46.9145 10.594C46.9507 10.7436 46.8627 10.8943 46.7168 10.9377L46.702 10.9417L44.5182 11.6622C44.4213 11.7006 44.3134 11.7006 44.2166 11.6622C44.1338 11.6236 44.0716 11.5514 44.0454 11.4641L44.0338 11.4211C43.8349 10.71 43.1846 9.56841 41.1592 9.56841C39.7183 9.56841 38.8538 10.3969 38.8538 11.1984L38.8542 11.2301C38.865 11.7513 39.1484 12.4055 40.391 12.6542L40.4298 12.6617L42.8342 13.112C45.491 13.647 47.0224 15.0909 47.0527 17.1033L47.0532 17.1644L47.0442 17.1285L47.0436 17.1896C47.005 19.2068 45.0538 21.3294 41.4609 21.3294C37.2509 21.3294 35.5984 18.9475 35.2922 17.5427C35.2722 17.3957 35.3619 17.2569 35.5021 17.2137L35.5173 17.2095L37.7687 16.5071C37.8089 16.5005 37.85 16.5005 37.8902 16.5071C37.9475 16.506 38.0041 16.5182 38.0557 16.5424L38.0748 16.5521C38.1575 16.5917 38.2185 16.6659 38.2414 16.7547C38.5251 18.1056 39.7454 18.9115 41.5014 18.9115C43.1359 18.9115 43.8788 18.056 43.8788 17.2815C43.8788 16.5156 43.2314 15.9478 42.1152 15.7133L42.0778 15.7056L39.5518 15.2148C37.1968 14.769 35.729 13.3056 35.729 11.401C35.729 9.08209 38.2189 7.11893 41.1592 7.11893ZM131.97 3.36821H133.938C134.17 3.38215 134.352 3.57045 134.361 3.80108L134.361 3.81846V7.51519H136.729C136.959 7.53138 137.139 7.71885 137.148 7.94775L137.148 7.96544V9.92861L137.148 9.9457C137.141 10.1658 136.966 10.3446 136.746 10.3558L136.729 10.3564H134.361V16.9258C134.361 18.0154 134.793 18.4658 135.905 18.4658C136.13 18.4618 136.355 18.4448 136.578 18.4146L136.662 18.4027C136.784 18.3819 136.909 18.4166 137.004 18.4973C137.089 18.5761 137.14 18.6846 137.147 18.7998L137.148 18.8215V20.672C137.15 20.8606 137.027 21.0277 136.846 21.0818C136.328 21.227 135.792 21.2999 135.254 21.2986L135.18 21.2979C132.831 21.2979 131.365 19.8019 131.335 17.3822L131.335 17.3086V10.3834H129.286C129.063 10.3702 128.883 10.195 128.864 9.97368L128.863 9.95563V7.98343C128.862 7.75076 129.039 7.55713 129.269 7.53455L129.286 7.53318L129.837 7.53311L129.896 7.53207C130.539 7.5136 131.526 7.25301 131.546 5.81781L131.547 5.77259V3.81846C131.546 3.58579 131.723 3.39215 131.953 3.36958L131.97 3.36821ZM93.7261 7.12148L93.7777 7.12348H93.773C96.0912 7.12348 98.4313 8.73861 98.4779 12.2661L98.4786 12.3735V20.7126C98.4681 20.9363 98.2943 21.117 98.0734 21.1389L98.0554 21.1404H95.8984C95.675 21.1271 95.4964 20.9519 95.4764 20.7306L95.4752 20.7126V12.6438L95.4748 12.5816C95.4616 11.5535 95.1122 9.90157 92.9946 9.90157C91.4295 9.90157 90.3148 11.1196 90.2926 12.8915L90.2923 12.9454V20.7126C90.2818 20.9363 90.1087 21.117 89.8872 21.1389L89.8691 21.1404H87.6858C87.4617 21.1271 87.283 20.9519 87.2638 20.7306L87.2626 20.7126V12.6438L87.2622 12.5816C87.2491 11.5535 86.8996 9.90157 84.7812 9.90157C83.1542 9.90157 82.0525 11.1108 82.0307 12.9175L82.0303 12.9724V20.7126C82.019 20.9363 81.846 21.117 81.6251 21.1389L81.6071 21.1404H79.4501C79.2283 21.125 79.0518 20.9503 79.0327 20.7305L79.0315 20.7126V7.93393C79.042 7.71179 79.2129 7.53162 79.4322 7.50774L79.4501 7.50615H81.526C81.7494 7.51931 81.9288 7.69458 81.948 7.91588L81.9492 7.93393V8.7039C82.8829 7.68015 84.2105 7.10495 85.596 7.12348C87.2008 7.07645 88.6983 7.92489 89.4822 9.32521C90.4157 7.89883 92.0252 7.06436 93.7261 7.12148ZM126.022 8.71286C126.848 9.80144 127.274 11.1403 127.23 12.505L127.228 12.5627V20.7126C127.217 20.9347 127.047 21.1149 126.827 21.1388L126.809 21.1404H124.626C124.402 21.1271 124.223 20.9519 124.203 20.7306L124.202 20.7126V12.9995C124.202 10.9822 123.252 9.95563 121.451 9.95563C120.656 9.92992 119.895 10.2843 119.402 10.9102C118.926 11.5972 118.68 12.4171 118.699 13.252L118.7 13.3011V20.7126C118.689 20.9363 118.516 21.117 118.295 21.1389L118.277 21.1404H116.098C115.874 21.1271 115.695 20.9519 115.676 20.7306L115.674 20.7126V7.92489C115.685 7.70118 115.859 7.52045 116.08 7.49854L116.098 7.49712H118.228C118.45 7.51246 118.626 7.68719 118.645 7.90697L118.646 7.92489V8.82546C119.56 7.71861 120.931 7.09143 122.366 7.12348C123.763 7.06371 125.112 7.6498 126.022 8.71286ZM0.522321 15.584H16.0252C16.31 15.5864 16.5402 15.8146 16.5473 16.0972L16.5475 16.1154V18.0561C16.5499 18.3409 16.3257 18.5749 16.0432 18.5869L16.0251 18.5873H0.522321C0.237384 18.5849 0.00731346 18.3567 0 18.0741V18.056V16.1153V16.0972C0.00716087 15.8207 0.227558 15.5964 0.503822 15.5845L0.522321 15.584ZM69.891 9.98267C67.7657 9.98267 66.4149 11.4956 66.4149 13.927C66.4149 16.3585 67.7476 17.8668 69.891 17.8668C71.9351 17.8668 73.313 16.2819 73.313 13.927C73.313 11.5676 71.9351 9.98267 69.891 9.98267ZM51.8769 12.6134L51.8711 12.6617H58.2785C58.1225 10.95 56.9161 9.8826 55.1095 9.86143L55.0545 9.8611C53.4626 9.83522 52.1069 10.9996 51.8833 12.5659L51.8769 12.6134ZM103.707 12.6134L103.702 12.6617H110.109C109.953 10.95 108.747 9.8826 106.94 9.86143L106.885 9.8611C105.293 9.83522 103.937 10.9996 103.714 12.5659L103.707 12.6134ZM17.9658 0.774618C18.1 0.823041 18.2088 0.923748 18.2674 1.0538C18.3213 1.18509 18.3213 1.33229 18.2674 1.4635L17.5921 3.26464C17.4985 3.5317 17.2065 3.67265 16.9392 3.57982C13.4008 2.34508 9.47466 3.04663 6.58296 5.43039C4.78082 6.93883 3.50121 8.97807 2.92678 11.2569C2.86731 11.487 2.6601 11.648 2.42247 11.6487H2.30539L0.450266 11.2029C0.311948 11.1704 0.19317 11.0824 0.121578 10.9597H0.112542C0.0374756 10.8371 0.0163148 10.6888 0.0540799 10.55C0.79077 7.63289 2.43915 5.02702 4.75935 3.1115C8.44875 0.0741483 13.4581 -0.812289 17.9658 0.774618ZM11.0992 8.55531H26.602C26.8798 8.55758 27.1069 8.77492 27.1235 9.05015L27.1243 9.06858V11.0093C27.1267 11.2942 26.9026 11.5282 26.6201 11.5402L26.602 11.5406H11.0992C10.8161 11.5358 10.5887 11.3085 10.5815 11.0277L10.5813 11.0093V9.08657C10.5789 8.8035 10.8002 8.57037 11.0808 8.55594L11.0992 8.55531ZM21.8611 2.6342L21.8879 2.63399L21.9147 2.63422C22.775 2.64408 23.4677 3.33974 23.4771 4.19684L23.4771 4.22368C23.4771 4.23264 23.477 4.24159 23.4769 4.25048C23.462 5.12819 22.7383 5.82757 21.8606 5.81267C20.9829 5.79776 20.2835 5.07413 20.2984 4.19649C20.313 3.33662 21.0077 2.64794 21.8611 2.6342Z" fill="#C6D3DA"/>
</svg>
